<svg width="932" height="139" viewBox="0 0 932 139" fill="none" xmlns="http://www.w3.org/2000/svg">
<path d="M94.3 0H7.61C3.41 0 0 3.41 0 7.61V50.95C0 54.48 2.28999 57.61 5.64999 58.68L52.45 73.59L52.62 73.64C52.62 73.64 52.66 73.65 52.68 73.66C52.74 73.68 52.8 73.7 52.86 73.72C52.93 73.75 53 73.77 53.07 73.8C53.16 73.83 53.25 73.87 53.33 73.91C53.41 73.94 53.48 73.97 53.55 74.01C53.65 74.06 53.75 74.1 53.85 74.16C54.25 74.36 54.63 74.6 54.98 74.86C55.02 74.89 55.07 74.92 55.11 74.96C55.18 75.01 55.24 75.06 55.31 75.12C55.39 75.18 55.47 75.26 55.55 75.33C55.57 75.35 55.59 75.37 55.61 75.39C55.67 75.44 55.72 75.49 55.78 75.55C55.81 75.57 55.84 75.6 55.87 75.64C55.94 75.71 56.01 75.78 56.08 75.86C56.15 75.93 56.22 76.01 56.28 76.08C56.55 76.38 56.78 76.7 57 77.04C57.05 77.11 57.09 77.18 57.13 77.25C57.17 77.32 57.21 77.39 57.25 77.46C57.3 77.55 57.35 77.64 57.4 77.74C57.45 77.83 57.49 77.93 57.54 78.02C57.59 78.11 57.63 78.21 57.67 78.3C57.67 78.3 57.67 78.3 57.67 78.31C57.71 78.4 57.75 78.5 57.78 78.59C57.82 78.69 57.85 78.79 57.89 78.89C57.92 78.99 57.95 79.09 57.98 79.19C58.01 79.29 58.04 79.39 58.06 79.5C58.08 79.58 58.1 79.67 58.12 79.75C58.12 79.78 58.13 79.81 58.14 79.85C58.16 79.94 58.18 80.03 58.19 80.13C58.21 80.22 58.22 80.3 58.23 80.39C58.23 80.44 58.24 80.48 58.25 80.53C58.25 80.6 58.27 80.66 58.27 80.73C58.27 80.83 58.28 80.94 58.29 81.05C58.29 81.16 58.29 81.27 58.29 81.37C58.29 81.79 58.26 82.22 58.19 82.65L52.96 118C52.36 122.03 48.9 124.93 44.94 124.93C44.54 124.93 44.14 124.9 43.74 124.84C39.31 124.18 36.25 120.06 36.9 115.63L40.65 90.25C40.92 88.4 39.82 86.63 38.04 86.07L7.04999 76.2C3.55999 75.09 0 77.69 0 81.35V130.21C0 134.69 3.63 138.32 8.11 138.32H94.8C99 138.32 102.41 134.91 102.41 130.71V85.77C102.41 82.24 100.12 79.11 96.76 78.04L49.96 63.14L49.79 63.09C49.79 63.09 49.74 63.07 49.71 63.06C49.65 63.04 49.6 63.02 49.54 63.01C49.47 62.99 49.4 62.96 49.33 62.93C49.24 62.9 49.15 62.86 49.07 62.82C48.99 62.79 48.92 62.76 48.85 62.72C48.65 62.63 48.46 62.53 48.28 62.43C48.18 62.38 48.08 62.32 47.99 62.26C47.88 62.19 47.77 62.12 47.66 62.04C47.57 61.98 47.47 61.91 47.38 61.84C47.29 61.77 47.2 61.7 47.12 61.63C47.11 61.63 47.1 61.61 47.08 61.6C47.01 61.54 46.94 61.48 46.87 61.42C46.85 61.4 46.83 61.38 46.81 61.36C46.73 61.29 46.65 61.22 46.58 61.14C46.49 61.06 46.41 60.97 46.33 60.89C46.26 60.81 46.19 60.74 46.12 60.66C45.82 60.32 45.56 59.95 45.32 59.57C45.27 59.49 45.23 59.41 45.18 59.33C45.17 59.31 45.16 59.29 45.14 59.27C45.09 59.19 45.05 59.1 45.01 59.02C44.96 58.93 44.92 58.84 44.88 58.75C44.88 58.74 44.87 58.72 44.86 58.71C44.82 58.62 44.78 58.54 44.75 58.45C44.71 58.35 44.67 58.26 44.63 58.16C44.59 58.06 44.56 57.97 44.53 57.87C44.5 57.77 44.47 57.67 44.44 57.57C44.38 57.38 44.34 57.19 44.3 56.99C44.3 56.97 44.29 56.95 44.29 56.93C44.28 56.87 44.26 56.8 44.25 56.73C44.24 56.67 44.23 56.61 44.22 56.55C44.22 56.5 44.2 56.44 44.2 56.39C44.2 56.35 44.19 56.31 44.19 56.26C44.18 56.18 44.17 56.11 44.17 56.04C44.17 55.94 44.15 55.83 44.15 55.73C44.15 55.62 44.15 55.52 44.15 55.42C44.15 55.2 44.15 54.98 44.17 54.76C44.18 54.57 44.21 54.38 44.23 54.19C44.23 54.17 44.23 54.14 44.24 54.12L49.47 18.78C50.12 14.35 54.25 11.29 58.68 11.94C63.11 12.6 66.18 16.72 65.52 21.15L61.77 46.53C61.5 48.38 62.6 50.15 64.38 50.71L95.37 60.58C98.86 61.69 102.42 59.09 102.42 55.43V8.11C102.42 3.63 98.79 0 94.31 0H94.3Z" fill="#33AAFF"/>
<path d="M162.81 80.7C162.81 80.63 162.82 80.57 162.83 80.5L162.85 80.36C162.85 80.27 162.87 80.19 162.89 80.1C162.9 80.01 162.92 79.91 162.94 79.82C162.94 79.79 162.95 79.76 162.96 79.72C162.98 79.64 163 79.55 163.02 79.47C163.04 79.37 163.07 79.26 163.1 79.16C163.13 79.06 163.16 78.96 163.19 78.86C163.22 78.76 163.25 78.66 163.3 78.56C163.33 78.46 163.37 78.37 163.41 78.28C163.41 78.28 163.41 78.28 163.41 78.27C163.45 78.17 163.49 78.08 163.54 77.99C163.58 77.89 163.63 77.8 163.68 77.71C163.73 77.62 163.77 77.52 163.83 77.43C163.87 77.36 163.91 77.29 163.95 77.22C163.99 77.15 164.03 77.08 164.08 77.01C164.29 76.67 164.53 76.35 164.8 76.05C164.86 75.97 164.93 75.9 165 75.83C165.07 75.75 165.14 75.68 165.21 75.61C165.24 75.58 165.27 75.55 165.3 75.52C165.36 75.46 165.41 75.41 165.47 75.36C165.49 75.34 165.51 75.32 165.53 75.3C165.61 75.23 165.69 75.16 165.77 75.09C165.83 75.03 165.9 74.98 165.97 74.93C166.01 74.89 166.05 74.86 166.1 74.83C166.45 74.57 166.83 74.33 167.23 74.13C167.33 74.08 167.43 74.03 167.53 73.98C167.6 73.94 167.68 73.91 167.75 73.88C167.84 73.84 167.92 73.81 168.01 73.77C168.08 73.74 168.15 73.72 168.22 73.69C168.28 73.67 168.34 73.65 168.4 73.63C168.42 73.63 168.44 73.61 168.46 73.61L168.63 73.56L215.43 58.65C218.8 57.58 221.08 54.45 221.08 50.92V7.61C221.08 3.41 217.67 0 213.47 0H126.78C122.3 0 118.67 3.63 118.67 8.11V55.37C118.67 59.03 122.23 61.64 125.72 60.52L156.71 50.65C158.49 50.08 159.59 48.31 159.32 46.47L155.57 21.09C154.91 16.66 157.98 12.53 162.41 11.88C166.84 11.23 170.97 14.29 171.62 18.72L176.85 54.06C176.85 54.06 176.85 54.11 176.86 54.13C176.89 54.32 176.91 54.51 176.92 54.7C176.94 54.92 176.95 55.14 176.94 55.36C176.94 55.47 176.94 55.57 176.94 55.67C176.94 55.78 176.93 55.88 176.92 55.98C176.92 56.06 176.91 56.13 176.9 56.2C176.9 56.24 176.9 56.28 176.89 56.33C176.89 56.38 176.88 56.44 176.87 56.49C176.86 56.55 176.85 56.61 176.84 56.67C176.84 56.73 176.82 56.8 176.8 56.87C176.8 56.89 176.8 56.91 176.79 56.93C176.75 57.12 176.71 57.32 176.65 57.51C176.62 57.61 176.59 57.71 176.56 57.81C176.53 57.91 176.5 58 176.46 58.1C176.42 58.2 176.39 58.29 176.34 58.39C176.31 58.48 176.27 58.57 176.23 58.65C176.23 58.66 176.22 58.68 176.21 58.69C176.17 58.78 176.13 58.87 176.08 58.96C176.04 59.04 175.99 59.13 175.95 59.21C175.94 59.23 175.93 59.25 175.91 59.27C175.87 59.35 175.82 59.43 175.77 59.51C175.54 59.89 175.27 60.26 174.97 60.6C174.91 60.68 174.83 60.76 174.76 60.83C174.68 60.92 174.6 61 174.51 61.08C174.44 61.16 174.36 61.23 174.28 61.3C174.26 61.32 174.24 61.34 174.22 61.36C174.15 61.42 174.08 61.48 174.01 61.54C174 61.55 173.99 61.56 173.97 61.57C173.88 61.64 173.79 61.71 173.7 61.78C173.61 61.85 173.52 61.92 173.42 61.98C173.31 62.06 173.2 62.13 173.09 62.2C172.99 62.26 172.9 62.32 172.8 62.37C172.61 62.48 172.42 62.57 172.23 62.66C172.16 62.7 172.08 62.73 172.01 62.76C171.92 62.8 171.84 62.83 171.75 62.87C171.68 62.9 171.61 62.92 171.54 62.95C171.49 62.97 171.43 62.99 171.37 63C171.35 63.01 171.32 63.02 171.29 63.03L171.12 63.08L124.32 77.98C120.95 79.05 118.67 82.18 118.67 85.71V130.65C118.67 134.85 122.08 138.26 126.28 138.26H212.97C217.45 138.26 221.08 134.63 221.08 130.15V81.29C221.08 77.63 217.52 75.02 214.03 76.14L183.04 86.01C181.26 86.58 180.16 88.35 180.43 90.19L184.18 115.57C184.83 120 181.77 124.13 177.34 124.78C176.94 124.84 176.54 124.87 176.14 124.87C172.19 124.87 168.72 121.97 168.12 117.94L162.89 82.59C162.82 82.16 162.79 81.73 162.79 81.31C162.79 81.2 162.79 81.09 162.79 80.99C162.79 80.88 162.8 80.78 162.81 80.67V80.7Z" fill="#33FFD0"/>
<path d="M280.95 112.71C280.19 112.33 279.35 112 278.45 111.75C277.56 111.5 276.65 111.27 275.75 111.07C274.87 110.87 274.05 110.65 273.31 110.4C272.6 110.16 272.03 109.87 271.61 109.52C271.22 109.2 271.04 108.79 271.04 108.26C271.04 107.98 271.09 107.68 271.2 107.36C271.3 107.06 271.51 106.76 271.82 106.47C272.13 106.18 272.58 105.94 273.18 105.75C273.79 105.56 274.61 105.46 275.6 105.46C277.2 105.46 278.39 105.76 279.14 106.35C279.89 106.94 280.31 107.64 280.41 108.49L280.44 108.74H283.11L283.09 108.44C283.03 107.48 282.72 106.57 282.18 105.74C281.63 104.91 280.8 104.23 279.71 103.72C278.63 103.22 277.25 102.96 275.6 102.96C273.27 102.96 271.48 103.45 270.28 104.43C269.07 105.42 268.45 106.72 268.45 108.29C268.45 109.25 268.7 110.06 269.18 110.68C269.65 111.29 270.29 111.79 271.07 112.18C271.83 112.55 272.67 112.87 273.57 113.11C274.45 113.35 275.35 113.57 276.24 113.79C277.11 114 277.92 114.23 278.65 114.48C279.36 114.72 279.93 115.03 280.35 115.4C280.74 115.74 280.93 116.18 280.93 116.74C280.93 117.71 280.53 118.42 279.72 118.91C278.87 119.42 277.69 119.68 276.2 119.68C275.18 119.68 274.24 119.55 273.4 119.31C272.58 119.07 271.91 118.69 271.41 118.18C270.92 117.68 270.66 117.05 270.61 116.23L270.59 115.96H267.87L267.9 116.27C267.99 117.4 268.34 118.42 268.92 119.32C269.51 120.23 270.4 120.94 271.57 121.45C272.72 121.95 274.23 122.2 276.06 122.2C278.35 122.2 280.18 121.72 281.51 120.78C282.87 119.82 283.56 118.43 283.56 116.65C283.56 115.67 283.31 114.85 282.83 114.22C282.36 113.6 281.72 113.09 280.94 112.69L280.95 112.71Z" fill="white"/>
<path d="M301.32 108.43C300.26 107.77 298.98 107.44 297.52 107.44C296.06 107.44 294.8 107.77 293.73 108.43C292.66 109.09 291.83 109.99 291.26 111.1C290.69 112.21 290.4 113.46 290.4 114.82C290.4 116.18 290.7 117.41 291.3 118.53C291.9 119.65 292.75 120.56 293.84 121.22C294.93 121.88 296.21 122.21 297.65 122.21C299.34 122.21 300.75 121.8 301.83 120.98C302.9 120.17 303.7 119.11 304.2 117.84L304.35 117.45H301.51L301.43 117.6C301.09 118.23 300.6 118.76 299.98 119.16C299.37 119.56 298.6 119.76 297.68 119.76C296.82 119.76 296.05 119.57 295.4 119.2C294.75 118.83 294.22 118.33 293.84 117.7C293.5 117.16 293.27 116.56 293.15 115.92H304.64V114.81C304.64 113.45 304.35 112.2 303.78 111.09C303.21 109.97 302.38 109.07 301.32 108.42V108.43ZM297.52 109.88C298.76 109.88 299.77 110.25 300.52 110.98C301.2 111.65 301.65 112.47 301.86 113.44H293.18C293.4 112.47 293.86 111.65 294.53 110.98C295.27 110.25 296.27 109.88 297.51 109.88H297.52Z" fill="white"/>
<path d="M322.86 109.35C322.41 108.86 321.88 108.45 321.28 108.13C320.42 107.67 319.39 107.44 318.21 107.44C316.82 107.44 315.59 107.77 314.55 108.43C313.51 109.09 312.69 109.99 312.12 111.1C311.55 112.21 311.26 113.46 311.26 114.82C311.26 116.18 311.55 117.41 312.12 118.53C312.69 119.66 313.51 120.56 314.55 121.22C315.59 121.88 316.83 122.21 318.21 122.21C319.39 122.21 320.42 121.98 321.28 121.52C321.88 121.2 322.41 120.79 322.86 120.31V122H325.49V107.66H322.86V109.36V109.35ZM322.44 112.33C322.79 113.08 322.96 113.92 322.96 114.83C322.96 115.74 322.78 116.56 322.43 117.31C322.09 118.06 321.58 118.66 320.92 119.11C320.27 119.55 319.44 119.78 318.48 119.78C317.52 119.78 316.7 119.55 316.02 119.11C315.33 118.66 314.8 118.06 314.44 117.31C314.07 116.55 313.89 115.72 313.89 114.83C313.89 113.94 314.07 113.08 314.44 112.34C314.8 111.6 315.33 111 316.02 110.55C316.7 110.11 317.53 109.88 318.48 109.88C319.43 109.88 320.27 110.1 320.92 110.55C321.58 111 322.09 111.6 322.43 112.34L322.44 112.33Z" fill="white"/>
<path d="M342.66 114.31C341.95 114.03 341.19 113.81 340.39 113.65C339.62 113.5 338.88 113.33 338.19 113.16C337.53 112.99 336.98 112.77 336.57 112.5C336.21 112.26 336.04 111.92 336.04 111.47C336.04 111.05 336.04 109.77 339.03 109.77C340.11 109.77 340.89 109.96 341.34 110.34C341.79 110.72 342.04 111.15 342.11 111.67L342.14 111.92H344.8L344.77 111.61C344.69 110.89 344.44 110.2 344.02 109.58C343.6 108.95 342.98 108.43 342.18 108.04C341.38 107.65 340.34 107.45 339.09 107.45C337.25 107.45 335.84 107.82 334.88 108.54C333.9 109.28 333.4 110.34 333.4 111.67C333.4 112.58 333.65 113.32 334.13 113.86C334.6 114.38 335.21 114.78 335.95 115.06C336.66 115.33 337.42 115.55 338.21 115.72C338.97 115.88 339.72 116.05 340.42 116.23C341.08 116.39 341.62 116.63 342.03 116.92C342.39 117.18 342.57 117.53 342.57 118.01C342.57 118.4 342.47 118.71 342.25 118.95C342.02 119.21 341.74 119.41 341.41 119.53C341.06 119.67 340.68 119.76 340.3 119.82C339.91 119.87 339.58 119.9 339.32 119.9C338.49 119.9 337.8 119.78 337.29 119.53C336.79 119.29 336.42 118.97 336.18 118.59C335.94 118.2 335.79 117.79 335.74 117.37L335.71 117.12H333.01L333.03 117.42C333.09 118.27 333.36 119.08 333.85 119.8C334.33 120.53 335.04 121.12 335.96 121.56C336.87 122 337.99 122.22 339.29 122.22C341.05 122.22 342.48 121.85 343.54 121.11C344.64 120.35 345.19 119.24 345.19 117.81C345.19 116.88 344.94 116.13 344.46 115.57C343.99 115.03 343.38 114.61 342.64 114.32L342.66 114.31Z" fill="white"/>
<path d="M362.86 108.43C361.8 107.77 360.52 107.44 359.06 107.44C357.6 107.44 356.34 107.77 355.27 108.43C354.2 109.09 353.37 109.99 352.8 111.1C352.23 112.21 351.94 113.46 351.94 114.82C351.94 116.18 352.23 117.41 352.8 118.53C353.37 119.66 354.2 120.56 355.27 121.22C356.34 121.88 357.61 122.21 359.05 122.21C360.49 122.21 361.79 121.88 362.85 121.22C363.91 120.56 364.74 119.66 365.31 118.53C365.88 117.41 366.17 116.16 366.17 114.82C366.17 113.48 365.88 112.21 365.31 111.1C364.74 109.98 363.91 109.08 362.85 108.43H362.86ZM361.5 119.11C360.85 119.55 360.02 119.78 359.06 119.78C358.1 119.78 357.29 119.56 356.63 119.11C355.96 118.66 355.45 118.06 355.11 117.31C354.76 116.55 354.59 115.72 354.59 114.83C354.59 113.94 354.77 113.08 355.11 112.33C355.45 111.59 355.97 110.99 356.64 110.55C357.31 110.11 358.12 109.88 359.07 109.88C360.02 109.88 360.86 110.1 361.51 110.55C362.17 111 362.68 111.6 363.02 112.34C363.37 113.09 363.54 113.93 363.54 114.84C363.54 115.75 363.36 116.57 363.02 117.32C362.68 118.07 362.17 118.67 361.51 119.12L361.5 119.11Z" fill="white"/>
<path d="M383.59 108.14C382.72 107.67 381.77 107.43 380.77 107.43C379.6 107.43 378.62 107.68 377.86 108.16C377.35 108.49 376.89 108.87 376.48 109.3V107.65H373.85V121.99H376.48V113.77C376.48 113 376.66 112.31 377.01 111.72C377.36 111.13 377.83 110.67 378.41 110.35C378.99 110.03 379.65 109.86 380.36 109.86C381.43 109.86 382.27 110.2 382.94 110.91C383.6 111.61 383.94 112.56 383.94 113.73V121.97H386.57V113.67C386.57 112.32 386.29 111.16 385.75 110.23C385.2 109.3 384.48 108.59 383.6 108.11L383.59 108.14Z" fill="white"/>
<path d="M409.73 118.34C410.21 117.83 410.83 117.31 411.56 116.78C412.31 116.24 413.1 115.68 413.91 115.12C414.73 114.55 415.52 113.93 416.26 113.28C417.01 112.62 417.63 111.91 418.1 111.15C418.59 110.37 418.83 109.53 418.83 108.63C418.83 107.57 418.57 106.61 418.06 105.76C417.55 104.91 416.8 104.23 415.82 103.73C414.86 103.23 413.68 102.98 412.32 102.98C411.16 102.98 410.1 103.2 409.14 103.64C408.18 104.08 407.39 104.72 406.79 105.53C406.18 106.35 405.82 107.32 405.7 108.41L405.67 108.72H408.3L408.33 108.48C408.47 107.52 408.87 106.82 409.58 106.32C410.29 105.82 411.23 105.56 412.38 105.56C413.63 105.56 414.59 105.84 415.24 106.4C415.89 106.96 416.2 107.7 416.2 108.69C416.2 109.33 415.98 109.91 415.52 110.48C415.04 111.07 414.42 111.65 413.67 112.21C412.9 112.78 412.07 113.36 411.2 113.95C410.32 114.55 409.47 115.18 408.7 115.83C407.91 116.49 407.25 117.21 406.75 117.97C406.22 118.76 405.96 119.64 405.96 120.59V122H418.79V119.45H409.04C409.15 119.08 409.38 118.71 409.73 118.35V118.34Z" fill="white"/>
<path d="M305.5 46.21C303.33 45.11 300.91 44.19 298.31 43.46C295.77 42.75 293.17 42.1 290.59 41.52C288.07 40.96 285.73 40.32 283.64 39.62C281.64 38.95 280.03 38.12 278.85 37.12C277.79 36.24 277.28 35.11 277.28 33.68C277.28 32.9 277.43 32.06 277.74 31.17C278.03 30.33 278.6 29.5 279.45 28.7C280.31 27.89 281.59 27.21 283.28 26.68C285.01 26.14 287.32 25.86 290.14 25.86C294.66 25.86 298.03 26.7 300.15 28.36C302.26 30.02 303.43 31.97 303.71 34.34L303.82 35.22H311.83L311.77 34.16C311.6 31.37 310.71 28.74 309.13 26.35C307.54 23.95 305.13 21.99 301.99 20.52C298.88 19.07 294.9 18.34 290.15 18.34C283.44 18.34 278.28 19.77 274.84 22.58C271.33 25.44 269.55 29.2 269.55 33.75C269.55 36.54 270.27 38.88 271.69 40.7C273.06 42.47 274.9 43.93 277.15 45.04C279.32 46.11 281.74 47.01 284.34 47.71C286.9 48.4 289.47 49.05 291.96 49.65C294.43 50.24 296.74 50.91 298.83 51.63C300.82 52.32 302.43 53.19 303.61 54.23C304.68 55.17 305.2 56.38 305.2 57.93C305.2 60.62 304.1 62.6 301.83 63.96C299.43 65.41 296.08 66.14 291.88 66.14C289 66.14 286.33 65.78 283.94 65.08C281.62 64.4 279.74 63.33 278.35 61.91C276.99 60.53 276.26 58.74 276.12 56.45L276.06 55.51H267.87L267.96 56.59C268.24 59.84 269.23 62.8 270.91 65.39C272.61 68.01 275.18 70.09 278.55 71.55C281.86 72.99 286.21 73.72 291.46 73.72C298.04 73.72 303.32 72.35 307.15 69.64C311.09 66.86 313.08 62.83 313.08 57.68C313.08 54.85 312.36 52.47 310.95 50.62C309.57 48.83 307.74 47.34 305.49 46.2L305.5 46.21Z" fill="white"/>
<path d="M350.13 62.3L338.13 31.74H329.41L345.88 71.53L338.27 88.68H346.84L370.99 31.74H362.35L350.13 62.3Z" fill="white"/>
<path d="M417.7 33.16C415.17 31.8 412.43 31.11 409.55 31.11C406.17 31.11 403.34 31.82 401.14 33.24C399.8 34.1 398.58 35.09 397.48 36.2V31.75H389.58V73.11H397.48V49.44C397.48 47.27 397.98 45.34 398.95 43.69C399.93 42.04 401.25 40.75 402.87 39.84C404.5 38.93 406.35 38.47 408.37 38.47C411.36 38.47 413.73 39.44 415.59 41.42C417.47 43.42 418.39 46.02 418.39 49.35V73.1H426.29V49.19C426.29 45.3 425.49 41.97 423.91 39.28C422.33 36.59 420.24 34.53 417.7 33.16Z" fill="white"/>
<path d="M461.57 40.35C463.55 39.1 465.91 38.46 468.59 38.46C471.27 38.46 473.34 39.11 475.13 40.4C476.93 41.69 478.26 43.4 479.08 45.47L479.33 46.1H487.73L487.34 44.81C486.13 40.79 483.77 37.46 480.32 34.93C476.88 32.4 472.67 31.11 467.8 31.11C463.69 31.11 460.07 32.07 457.04 33.98C454.01 35.88 451.63 38.47 449.95 41.69C448.28 44.89 447.44 48.5 447.44 52.43C447.44 56.36 448.29 59.9 449.95 63.12C451.63 66.36 454.01 68.97 457.04 70.87C460.07 72.77 463.7 73.74 467.8 73.74C472.67 73.74 476.88 72.46 480.32 69.92C483.76 67.39 486.12 64.06 487.34 60.04L487.73 58.75H479.33L479.08 59.38C478.26 61.45 476.93 63.15 475.13 64.45C473.34 65.74 471.14 66.39 468.59 66.39C465.91 66.39 463.55 65.75 461.57 64.5C459.58 63.24 458.03 61.53 456.97 59.42C455.89 57.29 455.35 54.94 455.35 52.43C455.35 49.92 455.9 47.51 456.97 45.41C458.04 43.33 459.58 41.63 461.57 40.37V40.35Z" fill="white"/>
<path d="M536.56 33.16C534.03 31.8 531.29 31.11 528.41 31.11C525.03 31.11 522.2 31.82 520 33.24C518.66 34.1 517.44 35.09 516.34 36.2V16H508.44V73.1H516.34V49.43C516.34 47.26 516.84 45.33 517.81 43.68C518.79 42.03 520.11 40.74 521.73 39.83C523.36 38.92 525.21 38.46 527.23 38.46C530.22 38.46 532.59 39.43 534.45 41.41C536.33 43.41 537.25 46.01 537.25 49.34V73.09H545.15V49.18C545.15 45.29 544.35 41.96 542.77 39.27C541.19 36.58 539.1 34.52 536.56 33.15V33.16Z" fill="white"/>
<path d="M583.45 32.42C581.59 33.28 580.03 34.34 578.79 35.57C577.94 36.42 577.22 37.28 576.64 38.14V31.74H568.74V73.1H576.64V54.78C576.64 52.05 577.18 49.44 578.25 47.04C579.3 44.67 580.84 42.71 582.82 41.21C584.76 39.75 587.11 39.01 589.82 39.01H591.53V31.11H590.14C587.59 31.11 585.35 31.55 583.46 32.42H583.45Z" fill="white"/>
<path d="M639.66 33.98C636.6 32.08 632.91 31.11 628.7 31.11C624.49 31.11 620.87 32.07 617.78 33.97C614.7 35.87 612.3 38.47 610.65 41.69C609.01 44.89 608.18 48.5 608.18 52.42C608.18 56.34 609.01 59.88 610.65 63.11C612.3 66.36 614.7 68.97 617.79 70.87C620.87 72.77 624.55 73.73 628.71 73.73C632.87 73.73 636.61 72.77 639.67 70.86C642.73 68.96 645.11 66.35 646.76 63.1C648.4 59.88 649.23 56.28 649.23 52.41C649.23 48.54 648.4 44.88 646.76 41.68C645.11 38.46 642.72 35.86 639.67 33.97L639.66 33.98ZM635.58 64.5C633.74 65.74 631.42 66.38 628.7 66.38C625.98 66.38 623.72 65.75 621.85 64.5C619.97 63.25 618.53 61.54 617.56 59.44C616.58 57.3 616.08 54.94 616.08 52.42C616.08 49.9 616.58 47.48 617.56 45.36C618.53 43.28 619.97 41.59 621.85 40.34C623.72 39.09 626.02 38.46 628.7 38.46C631.38 38.46 633.74 39.09 635.58 40.34C637.44 41.6 638.87 43.29 639.84 45.37C640.82 47.48 641.32 49.86 641.32 52.43C641.32 55 640.82 57.31 639.84 59.45C638.87 61.55 637.44 63.26 635.58 64.51V64.5Z" fill="white"/>
<path d="M698.88 33.16C696.35 31.8 693.61 31.11 690.73 31.11C687.35 31.11 684.52 31.82 682.32 33.24C680.98 34.1 679.76 35.09 678.66 36.2V31.75H670.76V73.11H678.66V49.44C678.66 47.27 679.16 45.34 680.13 43.69C681.11 42.04 682.43 40.75 684.05 39.84C685.68 38.93 687.53 38.47 689.55 38.47C692.54 38.47 694.91 39.44 696.77 41.42C698.65 43.42 699.57 46.02 699.57 49.35V73.1H707.47V49.19C707.47 45.3 706.67 41.97 705.09 39.28C703.51 36.59 701.42 34.53 698.88 33.16Z" fill="white"/>
<path d="M738.96 31.74H731.06V73.1H738.96V31.74Z" fill="white"/>
<path d="M739.2 17.41H730.82V27.12H739.2V17.41Z" fill="white"/>
<path d="M774.63 40.35C776.61 39.1 778.97 38.46 781.65 38.46C784.33 38.46 786.4 39.11 788.19 40.4C789.99 41.69 791.32 43.4 792.14 45.47L792.39 46.1H800.79L800.4 44.81C799.19 40.79 796.83 37.46 793.38 34.93C789.94 32.4 785.73 31.11 780.86 31.11C776.75 31.11 773.13 32.07 770.1 33.98C767.07 35.88 764.69 38.47 763.01 41.69C761.34 44.89 760.5 48.5 760.5 52.43C760.5 56.36 761.35 59.9 763.01 63.12C764.69 66.36 767.07 68.97 770.1 70.87C773.13 72.77 776.76 73.74 780.86 73.74C785.73 73.74 789.94 72.46 793.38 69.92C796.82 67.39 799.18 64.06 800.4 60.04L800.79 58.75H792.39L792.14 59.38C791.32 61.45 789.99 63.15 788.19 64.45C786.4 65.74 784.2 66.39 781.65 66.39C778.97 66.39 776.61 65.75 774.63 64.5C772.64 63.24 771.09 61.53 770.03 59.42C768.95 57.29 768.41 54.94 768.41 52.43C768.41 49.92 768.96 47.51 770.03 45.41C771.1 43.33 772.64 41.63 774.63 40.37V40.35Z" fill="white"/>
<path d="M829.65 17.41H821.27V27.12H829.65V17.41Z" fill="white"/>
<path d="M829.41 31.74H821.51V73.1H829.41V31.74Z" fill="white"/>
<path d="M865.54 17.65H857.64V31.74H849.61V38.93H857.64V73.1H865.54V38.93H874.59V31.74H865.54V17.65Z" fill="white"/>
<path d="M922.43 31.74L910.2 62.3L898.2 31.74H889.49L905.96 71.53L898.35 88.68H906.92L931.07 31.74H922.43Z" fill="white"/>
</svg>
